# xmcd CD database file
#
# Track frame offsets:
#	150
#	19052
#	38009
#	55035
#	72096
#	87699
#	103367
#	118743
#	134161
#	148562
#	162981
#	178207
#	193445
#	207324
#	221262
#	238138
#	255060
#	270901
#	286760
#	302139
#	317527
#
# Disc length: 4252 seconds
#
# Revision: 0
# Processed by: cddbd v1.5.2PL0 Copyright (c) Steve Scherf et al.
# Submitted via: CDex 1.70beta2
#
DISCID=3b109a15
DTITLE=Hal Leonard - Volume 36 - Horace Silver
DYEAR=1900
DGENRE=Jazz
TTITLE0=Doodlin (Split)
TTITLE1=Doodlin (Stereo)
TTITLE2=The Jody Grind (Split)
TTITLE3=The Jody Grind (Stereo)
TTITLE4=Nica's Dream (Split)
TTITLE5=Nica's Dream (Stereo)
TTITLE6=Opus de Funk (Split)
TTITLE7=Opus de Funk (Stereo)
TTITLE8=Peace (Split)
TTITLE9=Peace (Stereo)
TTITLE10=The Preacher (Split)
TTITLE11=The Preacher (Stereo)
TTITLE12=Senor Blues (Split)
TTITLE13=Senor Blues (Steeo)
TTITLE14=Sister Sadie (Split)
TTITLE15=Senor Blues (Stereo)
TTITLE16=Song for my father (Split)
TTITLE17=Song for my father (Stereo)
TTITLE18=Strollin' (Split)
TTITLE19=Strollin' (Stereo)
TTITLE20=Tuning Notes
EXTD=
EXTT0=
EXTT1=
EXTT2=
EXTT3=
EXTT4=
EXTT5=
EXTT6=
EXTT7=
EXTT8=
EXTT9=
EXTT10=
EXTT11=
EXTT12=
EXTT13=
EXTT14=
EXTT15=
EXTT16=
EXTT17=
EXTT18=
EXTT19=
EXTT20=
PLAYORDER=
